<svg width="32" height="32" viewBox="0 0 32 32" fill="none" xmlns="http://www.w3.org/2000/svg">
<path d="M32 25.952C32 29.84 29.84 32 25.952 32H6.048C2.16 32 0 29.84 0 25.952V6.048C0 2.16 2.16 0 6.048 0H25.96C29.84 0 32 2.16 32 6.048V25.952Z" fill="#FFE600"/>
<path d="M20.5757 14.4396V11.3836L21.6797 10.2796V12.9276L22.6397 13.8876L26.5037 10.0236L27.4557 10.9756C27.4477 10.2556 27.3037 8.16759 25.5357 6.43159C23.6317 4.59159 21.5677 5.42359 20.8637 6.12759L17.0077 9.98359L17.9917 10.9676L15.9997 12.9756L14.0077 10.9836L14.9917 9.99959L11.1357 6.14359C10.4317 5.43959 8.36771 4.60759 6.4637 6.44759C4.6957 8.18359 4.5517 10.2716 4.5437 10.9916L5.4957 10.0396L9.35971 13.9036L10.3197 12.9436V10.2956L11.4237 11.3996V14.4556L12.9757 15.9996L5.3277 23.6476L8.35171 26.6636L15.9997 19.0236L23.6477 26.6716L26.6717 23.6556L19.0237 15.9996L20.5757 14.4396Z" fill="#2B2D34"/>
</svg>
