<svg width="32" height="32" viewBox="0 0 32 32" fill="none" xmlns="http://www.w3.org/2000/svg">
<path d="M31.5773 14.9651L32 13.6376L30.6252 13.6811C29.9812 13.6574 29.361 13.4401 28.8395 13.0569H29.0252C29.8627 13.0529 30.6291 12.5749 31.0005 11.8243L31.605 10.5324C31.1309 10.5364 30.6568 10.5087 30.1866 10.4495C29.7363 10.3428 29.3334 10.0979 29.0291 9.75026C28.6182 9.3117 28.0494 9.06282 27.4489 9.0589C27.2158 9.0589 26.9827 9.09834 26.7575 9.16946C26.7891 9.06282 26.8168 8.95618 26.8366 8.84554C26.9314 8.07514 26.7141 7.29689 26.2361 6.68455L25.1931 5.40059L24.5531 6.90183C24.4504 7.11516 24.2963 7.30084 24.0988 7.43516C23.9882 6.89787 23.7274 6.408 23.3402 6.02084C22.6923 5.35714 21.8034 4.98578 20.875 4.99368C20.7131 4.99368 20.5511 5.00553 20.3931 5.02923L19.1447 5.27417C19.2514 4.85541 19.4212 4.45639 19.6504 4.08899L20.3378 3.01837L18.6074 3.18035L18.0543 1.99516L16.9877 2.5759L16 1.6001L15.0123 2.5759L13.9457 2.02282L13.3926 3.18035L11.6622 2.98281L12.3496 4.05738C12.5788 4.42479 12.7486 4.8238 12.8553 5.24257L11.6702 5.00948H11.6306C11.4647 4.98578 11.2988 4.97392 11.1328 4.97392C10.2045 4.96603 9.31552 5.33739 8.66768 6.00108C8.27656 6.39219 8.00792 6.88998 7.90123 7.43516C7.71161 7.30479 7.55753 7.12701 7.45482 6.91762L6.81086 5.40455L5.76 6.69244C5.28988 7.30479 5.0805 8.07914 5.17136 8.84554C5.19111 8.95618 5.21877 9.06282 5.25037 9.16946C5.02518 9.09834 4.7921 9.0589 4.55902 9.0589C3.95852 9.06282 3.38963 9.3117 2.97877 9.75026C2.67852 10.0939 2.2795 10.3389 1.83309 10.4495C1.35902 10.5206 0.87704 10.5483 0.395062 10.5324L0.983704 11.844C1.35506 12.5947 2.12148 13.0727 2.95902 13.0767H3.14469C2.63111 13.4519 2.01877 13.6692 1.38272 13.6969L0 13.6376L0.422716 14.9651C0.738766 16.004 1.63555 16.7665 2.71407 16.9048C2.60346 17.604 2.16098 18.2085 1.52889 18.5246L0.470123 18.9551L1.03902 19.9467C1.50914 20.6776 2.31902 21.1122 3.1842 21.1043C3.40938 21.1043 3.63457 21.0806 3.8558 21.0332C3.91111 21.2742 3.98222 21.5151 4.06123 21.7483C4.25877 22.2697 4.27062 22.8386 4.10074 23.368L3.58716 24.4465L4.73679 24.7507C4.99358 24.8179 5.26222 24.8495 5.52691 24.8495C5.71654 24.8495 5.90222 24.8297 6.0879 24.7863C6.22222 24.7547 6.35654 24.7151 6.48296 24.6638C6.62914 24.9285 6.81482 25.1735 7.0242 25.3907C7.75902 26.1453 8.802 26.5285 10.1254 26.5285H11.0696L9.122 27.3383L10.5995 28.0692C11.1961 28.3616 11.8045 28.6263 12.4247 28.8594L12.2469 29.3729L12.7566 29.606C13.602 29.9379 14.4988 30.1235 15.4074 30.1551H16.6202C17.525 30.1235 18.4178 29.9339 19.2593 29.6021L19.7531 29.3729L19.5793 28.8594C20.2074 28.6183 20.8237 28.3458 21.4242 28.0415L22.8741 27.3383L20.9304 26.5483H21.8785C23.202 26.5483 24.2489 26.1532 24.9798 25.4105C25.1931 25.1932 25.3748 24.9483 25.521 24.6835C25.6474 24.7349 25.7818 24.7744 25.9161 24.806C26.1018 24.8495 26.2874 24.8692 26.477 24.8692C26.7418 24.8692 27.0104 24.8337 27.2672 24.7705L28.4207 24.4663L27.919 23.4075C27.7294 22.8703 27.7373 22.2816 27.9388 21.7483C28.0218 21.5072 28.0889 21.2623 28.1442 21.0174C28.3654 21.0648 28.5946 21.0885 28.8198 21.0885C29.6928 21.0964 30.5066 20.646 30.9689 19.9033L31.5298 18.9235L30.4869 18.4969C29.8548 18.1808 29.4123 17.5764 29.3018 16.8771C30.3802 16.7349 31.277 15.9764 31.5931 14.9335L31.5773 14.9651Z" fill="white"/>
<path d="M20.7488 19.1604H11.2673V22.7159C11.2673 24.1777 12.3221 25.0863 13.8826 25.0863C15.1863 25.0863 15.53 25.1377 16.012 25.6196C16.3162 25.2918 16.7468 25.1061 17.1972 25.1139V25.0586L17.4974 24.1342L16.9878 23.5771C16.7823 23.6404 16.569 23.6641 16.3557 23.6522C16.0357 23.6482 15.7196 23.6166 15.4075 23.5534H15.3088C15.2653 23.5534 15.2653 23.5534 15.2534 23.5771L15.1942 23.6759L15.0875 23.8537L14.8821 23.8063L13.9695 23.593L13.8431 23.7984V23.8221L13.9537 23.9445L13.9063 24.1025C13.8234 24.2962 13.7048 24.47 13.5547 24.6201L13.3256 24.865L13.1162 24.6043L12.9621 24.4107C12.7962 24.1934 12.7566 23.909 12.8515 23.6522L12.5947 23.7589L12.4802 23.5061L12.417 23.3282C12.255 22.953 12.3774 22.5184 12.7053 22.2814L13.4402 21.8863L14.1394 22.0246C14.1394 21.9574 14.1829 21.7164 14.2026 21.6571H14.1631L13.768 21.8073L13.373 21.5386C13.2939 21.4596 13.29 21.3293 13.373 21.2463L13.7482 20.6774L12.7962 19.4922L14.2223 20.0532L14.3211 19.9347L14.5186 19.6977L14.7438 19.9109C14.8031 19.9702 14.8426 20.0414 14.8623 20.1243C15.2574 20.2823 15.9882 20.7446 16.0475 21.4952L15.8223 21.5861C15.85 21.6255 15.8856 21.6571 15.929 21.6769L16.972 21.7796L17.0668 21.752C17.2446 21.6848 17.4342 21.6493 17.6238 21.6453C17.8134 21.6453 17.9991 21.6888 18.169 21.7718C18.2441 21.7441 18.327 21.7282 18.4061 21.7243H18.4574C19.0145 21.7243 19.295 22.1431 19.5162 22.4749L19.6307 22.6409C19.8243 22.9174 20.0811 23.3204 20.093 23.3362L20.2075 23.5139L20.0653 23.6798C19.935 23.8537 19.7295 23.9525 19.5122 23.9525C19.449 23.9564 19.3858 23.9564 19.3226 23.9525C19.2673 23.9406 19.212 23.9248 19.1566 23.9011C19.1566 23.9564 19.1566 24.0236 19.125 24.0789L18.9631 25.0112C20.0377 24.7939 20.7962 23.83 20.7527 22.7318L20.7488 19.1604ZM11.2554 18.872H18.6391C18.3389 18.556 18.2362 18.1017 18.3705 17.6868C18.2718 17.6394 18.1769 17.5762 18.0939 17.5051C17.8055 17.7184 16.9088 18.3584 16.6954 18.5204L16.648 18.552L13.7482 18.0384H13.689C13.5942 18.0424 13.4994 18.0424 13.4046 18.0384C13.3769 18.1688 13.2623 18.2597 13.132 18.2597H13.0846C12.9305 18.232 12.8238 18.0858 12.8475 17.9318V17.8686C12.4722 17.5999 12.2945 17.1337 12.3932 16.6833V16.632L12.4366 16.6004C12.4366 16.6004 12.492 16.5609 12.567 16.5174L12.3577 16.4858C12.2786 16.47 12.2273 16.3989 12.2391 16.3199C12.251 16.2409 12.3221 16.1895 12.4011 16.2014H12.405L12.9068 16.2804L12.9542 14.5145L13.7009 13.7243L14.167 14.7041L13.6772 16.4029L14.1196 16.474C14.1986 16.4897 14.25 16.5609 14.2382 16.6399C14.2263 16.711 14.167 16.7584 14.0959 16.7584H14.0722L13.7127 16.6992V16.7268C13.7522 16.7979 13.8115 16.8533 13.8866 16.8888L16.095 16.9243L16.6598 16.3673C16.2293 16.2172 15.9211 15.8379 15.8698 15.3836C15.5932 15.277 15.368 15.0715 15.2416 14.8068C15.135 14.5579 15.1152 14.2774 15.1902 14.0167C14.8426 13.8784 14.5266 13.669 14.2698 13.4004H10.9907C11.1488 13.7876 11.2396 14.1984 11.2554 14.6133V18.872Z" fill="#FCE527"/>
<path d="M14.2856 20.7131C14.2381 20.7131 14.1947 20.7487 14.1907 20.7961V20.8C14.1868 20.8514 14.2263 20.8988 14.2777 20.9027H14.2816C14.3369 20.9027 14.3764 20.8593 14.3764 20.8079C14.3764 20.7526 14.3369 20.7131 14.2856 20.7131Z" fill="#222220"/>
<path d="M14.2816 20.7092C14.2855 20.7092 14.2855 20.7132 14.2855 20.7132C14.2895 20.7132 14.2895 20.7092 14.2935 20.7092H14.2816ZM20.7368 27.1882L20.1917 26.9788L20.3418 26.4139L20.5077 25.7976C19.7611 26.1808 18.9788 26.4889 18.1729 26.7181C17.7779 26.8287 17.4934 26.88 17.4934 26.88V27.2791C17.0075 27.3581 16.5176 27.4016 16.0238 27.4055H15.9803C15.4865 27.4016 14.9966 27.3581 14.5107 27.2791V26.884C14.5107 26.884 14.2223 26.8287 13.8272 26.7181C13.0213 26.4889 12.2391 26.1808 11.4924 25.7976L11.6544 26.4139L11.8084 26.9788L11.2593 27.1882L10.6667 27.4134C11.4806 27.8361 12.3299 28.1877 13.207 28.4643L12.9976 29.0332C13.9497 29.3966 14.969 29.5744 15.9882 29.5507H16.0119C17.0311 29.5744 18.0504 29.3966 19.0025 29.0332L18.7971 28.4643C19.6702 28.1877 20.5195 27.8361 21.3334 27.4134L20.7368 27.1882ZM11.3265 27.4489L12.2114 27.1527L11.9467 26.2836C12.5275 26.5719 13.1279 26.8129 13.7482 27.0025L13.3136 28.1877C12.6302 28.006 11.9625 27.7571 11.3265 27.4489ZM16.0238 29.2702L16.004 29.2544C15.1349 29.2504 14.2697 29.1319 13.4322 28.9028L13.9655 27.4568C14.6292 27.6228 15.3127 27.7136 16 27.7176H16.0435C16.7309 27.7097 17.4143 27.6228 18.0781 27.4568L18.6114 28.9028C17.7699 29.1398 16.8968 29.2623 16.0238 29.2702ZM18.7181 28.2114V28.1996L18.2835 27.0144C18.9038 26.8248 19.5043 26.5838 20.085 26.2954L19.8203 27.1645L20.7171 27.4648C20.0771 27.7768 19.4055 28.0297 18.7181 28.2114ZM16.0001 4.6381C16.8929 4.6144 17.7699 4.88304 18.4968 5.40057C18.6115 4.81588 18.8287 4.25489 19.1408 3.74526L18.244 3.84798L17.7779 2.84847L16.8731 3.31465L16.0001 2.44946L15.127 3.31465L14.2223 2.84847L13.7561 3.84798L12.8593 3.74526C13.1715 4.25489 13.3887 4.81588 13.5033 5.40057C14.2302 4.88304 15.1072 4.6144 16.0001 4.6381ZM13.7166 4.19563L13.9655 4.22329L14.0722 3.9981L14.3843 3.32649L14.965 3.62674L15.1902 3.74131L15.3719 3.57538L16.0001 2.93933L16.6282 3.57538L16.8099 3.75317L17.0351 3.6386L17.6119 3.33835L17.9279 4.00995L18.0347 4.23514L18.2835 4.20749L18.5206 4.17983C18.4258 4.39712 18.3428 4.6223 18.2756 4.85144C16.8495 4.12057 15.1547 4.12057 13.7285 4.85144C13.6613 4.6223 13.5783 4.39712 13.4835 4.17983L13.7166 4.19563ZM27.7177 12.7921L27.611 12.6618C26.8762 11.7255 26.1769 10.8366 24.9286 10.4296C24.9799 10.3862 25.0313 10.3467 25.0866 10.3112C25.6792 9.97533 26.0979 9.39861 26.2323 8.73093C26.2994 8.12645 26.1296 7.52203 25.7582 7.04005L25.3631 6.54623L25.1143 7.13487C25.1143 7.17042 24.6757 8.11461 23.7907 8.11461H23.53C23.5775 7.49437 23.3523 6.88203 22.9137 6.43956C22.3804 5.89437 21.6456 5.59017 20.8831 5.59413C20.7409 5.59413 20.5987 5.60598 20.4604 5.62574L19.8559 5.74426L20.2313 6.23808C20.5236 6.63314 20.7883 7.3166 20.4762 7.68401C20.3261 7.81437 20.1562 7.9171 19.9705 7.9882C19.5755 8.17389 19.0066 8.43861 19.0066 9.10229C19.0066 9.53293 19.3423 9.98325 19.9468 10.3664C21.7286 11.4964 22.8307 12.6618 23.3088 13.9734C24.0476 15.9724 23.0836 17.1102 22.1473 17.7107L21.7286 17.9793L22.096 18.3151C22.4239 18.5956 22.8268 18.7694 23.2575 18.8129H23.6169C23.9843 18.8129 24.3478 18.7616 24.6994 18.6548C24.6125 18.8089 24.5059 18.9551 24.3913 19.0894C23.858 19.7096 23.0678 20.0494 22.25 20.006H21.8984L21.8707 20.3576C21.8668 20.8514 22.0841 21.3176 22.4594 21.6376C22.5582 21.7245 22.6688 21.7956 22.7873 21.8509C22.2026 22.4198 21.8707 23.198 21.8589 24.0159C21.8589 24.4623 21.7562 24.9048 21.5626 25.3077L21.1675 25.9003H21.8707C23.0323 25.9003 23.9211 25.5803 24.5375 24.9443C24.8575 24.6084 25.0945 24.2016 25.2327 23.7591C25.4619 23.9526 25.7305 24.087 26.0229 24.1541C26.1611 24.1857 26.3034 24.2016 26.4456 24.2016C26.6589 24.2016 26.8723 24.1739 27.0777 24.1264L27.528 24.008L27.3305 23.5892C27.0816 22.9216 27.0816 22.1828 27.3305 21.5151C27.4767 21.0805 27.5794 20.6302 27.6348 20.1719C27.9903 20.3536 28.3853 20.4445 28.7844 20.4405C29.4402 20.4484 30.0525 20.1245 30.408 19.5753L30.6253 19.1803L30.2303 19.0144C28.9068 18.4652 28.6145 16.9877 28.5552 16.1896C28.6856 16.2173 28.8159 16.2332 28.9503 16.2371L29.0609 16.3121C30.4989 16.3121 30.9809 14.8464 31.0007 14.7832L31.1626 14.2657H30.6214C29.4836 14.2262 28.4209 13.6889 27.7177 12.7921ZM29.0648 15.9132H29.0095C28.7211 15.9171 28.4367 15.838 28.1918 15.688C28.1918 15.688 27.9823 18.5443 30.1118 19.4292V19.441C29.8313 19.8677 29.3493 20.1205 28.8396 20.1126C28.2629 20.1482 27.7059 19.9032 27.3424 19.4568C27.3543 20.1284 27.2436 20.8 27.0184 21.4321C26.73 22.1946 26.73 23.04 27.0184 23.8025C26.8407 23.846 26.6629 23.8696 26.4811 23.8696C26.3705 23.8696 26.2559 23.8578 26.1493 23.8302C25.6239 23.7037 25.2051 23.3166 25.0352 22.8069C25.0352 22.8069 25.1182 25.5487 21.9221 25.5487H21.8984C22.1394 25.0904 22.2659 24.5808 22.2619 24.0632C22.4002 22.0366 23.775 21.7482 23.775 21.7482C23.3957 21.7008 23.0362 21.5664 22.7202 21.3532C22.4318 21.1121 22.2659 20.7566 22.2579 20.3813C23.1823 20.4208 24.0752 20.0376 24.6796 19.3344C25.0431 18.9196 25.2841 18.4139 25.3868 17.8726C24.8772 18.2559 24.2491 18.4494 23.613 18.4218H23.2891C22.9453 18.3862 22.6175 18.2519 22.3527 18.0267C23.5695 17.2366 24.4229 15.8855 23.6683 13.8351C23.0599 12.1916 21.6021 10.963 20.1364 10.0386C19.6505 9.73829 19.3582 9.39861 19.3582 9.10621C19.3582 8.41885 20.334 8.39909 20.737 7.92104C21.1992 7.38376 20.9107 6.51462 20.5078 5.99314C20.6223 5.97339 20.7409 5.96549 20.8555 5.96549C21.5152 5.95758 22.1513 6.22228 22.6096 6.69635C23.0757 7.13882 23.2535 7.80647 23.0757 8.42277L23.2891 8.46621C23.4194 8.48997 23.5498 8.50181 23.6841 8.50573H23.771C24.9286 8.50573 25.45 7.2929 25.45 7.2929C25.45 7.2929 26.6826 8.80997 24.8693 9.99509C24.5572 10.1966 24.4189 10.3902 24.4743 10.5877L24.5019 10.718L24.6323 10.7418C25.9478 11.0973 26.6076 12.006 27.4253 13.0371C28.1996 14.0208 29.3691 14.6134 30.6214 14.6568H30.6451C30.6451 14.6568 30.25 15.9132 29.0648 15.9132Z" fill="#222220"/>
<path d="M26.5284 10.6075C26.9709 10.8603 27.3541 11.2041 27.6544 11.6149C27.8795 11.9626 28.1995 12.2391 28.5788 12.4051C28.7211 12.4525 28.8751 12.4762 29.0252 12.4762C29.6297 12.4762 30.1827 12.1325 30.4593 11.5951L30.6884 11.0816L30.1314 11.05C29.5309 10.9394 28.9897 10.6312 28.5907 10.169C28.2944 9.84898 27.8795 9.6633 27.4411 9.65938C27.1013 9.6633 26.7734 9.76602 26.489 9.94778L25.9754 10.3073L26.5284 10.6075ZM27.4529 10.0426L27.4411 10.0465C27.7768 10.0465 28.0929 10.1927 28.3181 10.4416C28.7803 10.971 29.4124 11.3226 30.1077 11.4371C29.8944 11.8362 29.4795 12.0851 29.0252 12.089C28.9147 12.089 28.804 12.0692 28.6974 12.0337C28.0574 11.8164 27.8322 10.8485 26.722 10.2639C26.9393 10.1216 27.1922 10.0465 27.4529 10.0426ZM26.7892 15.6999L26.7814 15.6919C26.4574 13.0845 24.5651 11.2001 22.4594 10.0583C22.2658 9.9517 22.0841 9.86482 21.9103 9.78178C22.7794 9.95962 23.6841 9.74626 24.3833 9.20106C24.3833 9.20106 23.1626 10.0979 20.6658 9.28402C21.3571 9.73442 22.7003 10.3665 23.929 11.3937C26.9947 14.088 24.8021 16.7191 24.8021 16.7191C25.7187 15.8499 26.0387 14.5226 25.6278 13.3295C26.2757 14.408 26.5878 15.6564 26.5206 16.9127C26.4337 18.9828 25.2841 20.7922 24.0989 22.2342C23.7433 22.6885 23.4984 23.2218 23.3957 23.7907C23.5971 23.2258 23.9014 22.7043 24.2964 22.2539C25.5803 20.7487 26.6668 19.1883 26.8208 16.9403C26.9552 17.3354 27.5003 18.4851 28.3695 18.9156C28.3695 18.9156 27.2791 18.2599 26.7892 15.6999ZM10.4337 25.3355C10.2441 24.9325 10.1414 24.49 10.1374 24.0436C10.1255 23.2259 9.78977 22.4475 9.20505 21.8787C9.32353 21.8234 9.43417 21.7523 9.53297 21.6654C9.90825 21.3454 10.1255 20.8791 10.1216 20.3854L10.0979 20.0337H9.74234C8.92849 20.0732 8.13841 19.7375 7.60505 19.1172C7.49049 18.9829 7.38777 18.8367 7.2969 18.6827C7.64851 18.7893 8.01193 18.8407 8.37937 18.8407H8.73889C9.16953 18.7972 9.57641 18.6234 9.90433 18.3429L10.2717 18.0071L9.85297 17.7384C8.91273 17.1379 7.9527 16.0002 8.69145 14.0011C9.16953 12.7014 10.2717 11.528 12.0692 10.3982C12.6737 10.0031 13.0055 9.56458 13.0055 9.13402C13.0055 8.47026 12.4485 8.20562 12.0416 8.01994C11.8559 7.94879 11.686 7.84608 11.5359 7.7157C11.2199 7.3483 11.4846 6.64904 11.7808 6.26978L12.1759 5.77595L11.5675 5.65744C11.4292 5.63374 11.2871 5.62583 11.1448 5.62583C10.3744 5.60213 9.63169 5.89842 9.08649 6.43966C8.64009 6.87818 8.40705 7.49447 8.45049 8.11866H8.21345C7.32456 8.11866 6.90579 7.17842 6.88999 7.13892L6.6411 6.55027L6.24604 7.0441C5.87863 7.52608 5.70876 8.1305 5.77592 8.73498C5.91024 9.40266 6.32505 9.97938 6.91765 10.3152C6.97295 10.3507 7.02826 10.3903 7.07567 10.4337C5.82727 10.8288 5.12802 11.7295 4.3932 12.6659L4.28653 12.8002C3.58333 13.697 2.51665 14.2343 1.37888 14.2737H0.837646L1.00357 14.7913C1.00357 14.8545 1.50135 16.3202 2.94332 16.3202H3.01443C3.14876 16.3162 3.27913 16.3004 3.40949 16.2727C3.35024 17.0629 3.05789 18.5483 1.73049 19.0975L1.33542 19.2634L1.5527 19.6584C1.90826 20.2075 2.52061 20.5315 3.17641 20.5236C3.57542 20.5275 3.96653 20.4367 4.32209 20.255C4.3774 20.7132 4.48011 21.1636 4.62629 21.5982C4.87517 22.2659 4.87517 23.0046 4.62629 23.6723L4.42876 24.0911L4.87913 24.2095C5.08456 24.257 5.29789 24.2846 5.51122 24.2846C5.65345 24.2846 5.79567 24.2688 5.93394 24.2372C6.22629 24.17 6.49493 24.0357 6.72406 23.8421C6.86233 24.2846 7.09937 24.6915 7.41937 25.0273C8.03962 25.6634 8.92849 25.9794 10.086 25.9834H10.7892L10.4337 25.3355ZM10.0939 25.5567C6.89789 25.5567 6.9769 22.815 6.9769 22.815C6.80702 23.3246 6.38826 23.7118 5.86283 23.8382C5.75616 23.8659 5.64159 23.8777 5.53097 23.8777C5.34925 23.8777 5.17147 23.854 4.99765 23.8105C5.28604 23.048 5.28604 22.2027 4.99765 21.4402C4.77245 20.808 4.66579 20.1364 4.67765 19.4648C4.31419 19.9113 3.75715 20.1562 3.18036 20.1207H3.16061C2.64702 20.1286 2.16505 19.8718 1.88456 19.4451C4.01394 18.5602 3.80456 15.7039 3.80456 15.7039C3.55962 15.854 3.27517 15.933 2.98678 15.9291H2.94332C1.75813 15.9291 1.36308 14.6727 1.36308 14.6727H1.38678C2.63913 14.6332 3.81245 14.0407 4.58678 13.057C5.40061 12.0259 6.06431 11.1172 7.37986 10.7616L7.51024 10.7379L7.53789 10.6075C7.57345 10.4061 7.43517 10.2125 7.14283 10.015C5.32949 8.82978 6.56209 7.31274 6.56209 7.31274C6.56209 7.31274 7.07567 8.52562 8.24113 8.52562H8.29641C8.43074 8.52162 8.56113 8.50978 8.69145 8.4861L8.90481 8.44266C8.72305 7.82633 8.90481 7.15867 9.37097 6.7162C9.82922 6.24213 10.4653 5.97744 11.1251 5.98534C11.2396 5.98534 11.3582 5.99324 11.4727 6.01299C11.0776 6.53842 10.7853 7.40756 11.2475 7.9409C11.6426 8.40314 12.6223 8.4229 12.6223 9.1261C12.6223 9.41842 12.3498 9.75818 11.8639 10.0623C10.3942 10.9868 8.93641 12.2155 8.33193 13.8589C7.5774 15.9093 8.43074 17.2723 9.64754 18.0505C9.38282 18.2718 9.05489 18.41 8.71121 18.4456H8.38329C7.74727 18.4732 7.11913 18.2797 6.60949 17.8964C6.71221 18.4377 6.9532 18.9434 7.3127 19.3582C7.91715 20.0575 8.81393 20.4446 9.73841 20.4051C9.73049 20.7804 9.56458 21.1359 9.27618 21.377C8.9601 21.5903 8.60057 21.7246 8.22137 21.772C8.22137 21.772 9.60009 22.0525 9.75025 24.0871C9.74625 24.6046 9.87274 25.1143 10.1137 25.5725L10.0939 25.5567Z" fill="#222220"/>
<path d="M2.97099 12.4721H2.97493C3.12506 12.4721 3.27913 12.4484 3.42135 12.401C3.80061 12.235 4.12061 11.9586 4.34579 11.6109C4.64209 11.2 5.02531 10.8563 5.46777 10.6034L6.02086 10.3072L5.50728 9.94768C5.22283 9.76592 4.89493 9.6632 4.55913 9.65928C4.12061 9.6632 3.70579 9.84888 3.4095 10.1729C3.01444 10.6311 2.46925 10.9432 1.87271 11.0538L1.31567 11.0815L1.54086 11.595C1.8174 12.1324 2.36654 12.4682 2.97099 12.4721ZM3.68209 10.4415C3.90333 10.1926 4.21938 10.0464 4.55518 10.0464C4.81197 10.0504 5.06481 10.1294 5.28209 10.2677C4.16407 10.8642 3.93099 11.8202 3.30679 12.0375C3.20407 12.0731 3.09345 12.0929 2.98283 12.0929C2.52456 12.0929 2.10579 11.84 1.89247 11.437C2.58777 11.3225 3.21987 10.9709 3.68209 10.4415ZM5.48756 16.9284C5.4204 15.6721 5.72855 14.4237 6.3804 13.3452C5.96954 14.5382 6.28954 15.8657 7.20608 16.7348C7.20608 16.7348 5.00954 14.1037 8.07916 11.4094C9.3078 10.3822 10.6471 9.75016 11.3384 9.29976C8.84164 10.1136 7.6209 9.2168 7.6209 9.2168C8.32012 9.762 9.22092 9.97528 10.09 9.79752C9.9162 9.88048 9.73444 9.97136 9.54092 10.0741C7.43522 11.2198 5.53102 13.1042 5.21892 15.7116V15.6918C4.72904 18.2518 3.63867 18.9077 3.63867 18.9077C4.50386 18.481 5.05299 17.3274 5.18336 16.9323C5.32954 19.1842 6.42781 20.7447 7.71176 22.2459C8.10284 22.6963 8.411 23.2178 8.61252 23.7827C8.5058 23.2178 8.26092 22.6845 7.90139 22.2341C6.7162 20.7921 5.57052 18.9827 5.48756 16.9284ZM15.2772 12.1718C15.4154 12.0375 15.609 11.9743 15.8026 11.998V12.7446C15.7987 12.9303 15.7512 13.1082 15.6604 13.2701H16.407C16.3162 13.1082 16.2688 12.9303 16.2648 12.7446V11.998C16.4544 11.9743 16.648 12.0375 16.7863 12.1718V11.6543H15.2772V12.1718ZM14.9651 8.58864H14.9572C15.0717 8.68744 15.206 8.7664 15.3523 8.81384L15.4471 8.85728V8.36744L14.57 8C14.6135 8.24496 14.7557 8.45824 14.9651 8.58864ZM17.0471 8.58472L17.0431 8.58864C17.2525 8.45824 17.3947 8.24496 17.4382 8L16.5612 8.36744V8.85336L16.652 8.80984C16.7982 8.76248 16.9325 8.68344 17.0471 8.58472Z" fill="#222220"/>
<path d="M18.6192 6.60535C18.6192 5.86658 17.3748 5.20288 16.0039 5.20288C14.633 5.20288 13.3886 5.86658 13.3886 6.60535L13.4162 6.78708L13.9654 9.94755L13.4162 10.2676L11.9822 11.0814C11.9822 11.0814 11.6622 11.2473 11.512 11.3461C10.9708 11.7412 10.8562 12.2705 11.1684 12.4997C11.2473 11.9624 11.7175 11.5673 12.2627 11.5832C12.717 11.595 13.1397 11.8241 13.3965 12.1994C13.4755 12.2943 13.5466 12.397 13.6098 12.4997C13.6928 12.634 13.7757 12.7525 13.8587 12.8671H10.2004C10.5086 13.3964 10.6864 13.993 10.7259 14.6053V22.7318C10.7259 24.7071 12.2389 25.6355 13.8864 25.6355C15.1506 25.6355 15.3204 25.5762 16.0157 26.2716C16.7111 25.5762 16.8809 25.6355 18.1452 25.6355C19.7807 25.6355 21.3056 24.6992 21.3056 22.7318V14.6132C21.3452 14.0009 21.5229 13.4044 21.8311 12.875H18.1332C18.2162 12.7604 18.2992 12.6419 18.3822 12.5076C18.4493 12.4048 18.5204 12.3021 18.5955 12.2073C18.8562 11.832 19.2789 11.6029 19.7332 11.591C20.2784 11.5752 20.7486 11.9703 20.8276 12.5076C21.1436 12.2824 21.0291 11.7175 20.4839 11.354C20.3377 11.2513 20.0177 11.0893 20.0177 11.0893L18.5955 10.2518L18.0464 9.93179L18.5955 6.77128L18.6192 6.60535ZM13.918 6.96881L15.8459 7.62066V10.6468L14.4276 9.89619L13.918 6.96881ZM10.9905 13.4004H14.313C14.5698 13.6691 14.8859 13.8824 15.2336 14.0167C15.1584 14.2775 15.1782 14.558 15.2849 14.8068C15.4113 15.0716 15.6365 15.277 15.913 15.3836C15.9644 15.838 16.2725 16.2172 16.7032 16.3673C16.4661 16.6084 16.233 16.8335 16.1382 16.9244L13.9298 16.8888C13.8548 16.8532 13.7955 16.798 13.756 16.7268V16.6992L14.1155 16.7584H14.1392C14.2103 16.7584 14.2696 16.711 14.2814 16.64C14.2932 16.5609 14.2419 16.4898 14.1629 16.474L13.7204 16.4029L14.2103 14.7041L13.7441 13.7244L12.9975 14.5145L12.95 16.2804L12.4484 16.2014C12.3693 16.1856 12.2982 16.237 12.2824 16.316V16.32C12.2705 16.3989 12.3219 16.47 12.4009 16.4859L12.6103 16.5175C12.5352 16.5609 12.4839 16.5925 12.48 16.6004L12.4365 16.632V16.6834C12.3377 17.1337 12.5195 17.6 12.8908 17.8686V17.9318C12.8671 18.0859 12.9738 18.232 13.1279 18.2596H13.1752C13.3056 18.2596 13.4202 18.1688 13.4479 18.0384C13.5427 18.0424 13.6336 18.0424 13.7284 18.0384H13.7876L16.6834 18.5639L16.7308 18.5323C16.96 18.3703 17.8409 17.7421 18.1293 17.517C18.2123 17.588 18.3071 17.6513 18.4059 17.6987C18.2716 18.1135 18.3743 18.5678 18.6745 18.8839H11.2552V14.6132C11.2395 14.1984 11.1486 13.7876 10.9905 13.4004ZM17.8804 17.3076C17.5802 17.5288 16.8414 18.0661 16.5728 18.2557L13.9456 17.7975V17.7264C13.9891 17.5486 14.0128 17.3668 14.0168 17.1851L16.2291 17.2207L16.2725 17.1772C16.3081 17.1416 17.0073 16.4661 17.3629 16.075C17.4577 16.1935 17.5684 16.2923 17.6948 16.3713C17.6316 16.6952 17.6987 17.031 17.8804 17.3076ZM13.4913 16.8335V16.8453C13.5506 16.956 13.6375 17.0508 13.7441 17.114C13.7402 17.276 13.7244 17.434 13.6968 17.592C13.6968 17.6276 13.6968 17.6632 13.6691 17.6987V17.754C13.4873 17.754 13.3096 17.7264 13.1357 17.671C12.8197 17.5012 12.6419 17.1535 12.6932 16.798C12.8355 16.6992 12.9975 16.636 13.1673 16.6123C13.3136 16.6084 13.4439 16.6952 13.4913 16.8335ZM13.2187 16.308L13.2622 14.637L13.6572 14.2419L13.8982 14.7436L13.4281 16.3713L13.2187 16.308ZM17.8607 25.11H17.4814L17.7777 24.1421C17.8252 24.0078 17.5802 23.834 17.4775 23.68C17.7184 23.8261 17.9673 23.9564 18.2241 24.075C18.2241 24.1066 17.8607 25.11 17.8607 25.11ZM18.876 24.0276L18.8444 24L18.6389 25.0666C18.5086 25.0666 18.3703 25.0943 18.2439 25.1021L18.4612 24.075C18.5244 23.7708 17.7066 23.68 17.3036 23.0755C17.0389 23.2967 16.6992 23.3994 16.3595 23.3639C16.0592 23.36 15.7629 23.3283 15.4705 23.2691C15.4192 23.2651 15.3679 23.2651 15.3165 23.2691C15.194 23.2612 15.0755 23.3244 15.0123 23.431L14.953 23.5298L13.8271 23.2572L13.5584 23.7234C13.515 23.7866 13.5229 23.8735 13.5782 23.9288L13.6532 24.0118C13.5782 24.158 13.4834 24.2923 13.3688 24.4068L13.2029 24.2014C13.0765 23.996 13.0884 23.7313 13.2306 23.5377L13.673 22.791L14.6172 22.9332L14.4711 22.5975C14.2736 22.155 14.5738 21.59 14.6054 21.2661C14.6054 21.3648 14.5027 21.3846 14.4 21.3846H14.1273C14.1076 21.3807 14.0839 21.3807 14.0641 21.3846L13.8073 21.5387L13.6059 21.353C13.5743 21.2937 13.5861 21.2227 13.6336 21.1792L14.0997 20.6537L13.5466 20.0098L14.3368 20.4048L14.5738 20.1204C14.637 20.1836 14.6093 20.3496 14.6093 20.3496C15.1822 20.4918 15.5812 21.0132 15.5654 21.6059V21.7204C15.6444 21.8468 15.7708 21.9337 15.913 21.9693L16.9836 22.076C17.197 22.0088 17.4143 21.9653 17.6355 21.9377C17.8252 21.9377 18.0148 21.997 18.1728 22.0996C18.2479 22.0484 18.3387 22.0167 18.4296 22.0128H18.4652C18.9432 22.0128 19.1446 22.4473 19.4014 22.8029C19.595 23.0755 19.8557 23.4864 19.8557 23.4864C19.7807 23.597 19.6582 23.6641 19.5239 23.6641C19.4765 23.668 19.433 23.668 19.3856 23.6641C18.872 23.5693 18.797 22.5105 18.5046 22.4276H18.4572C18.4019 22.4276 18.3506 22.4592 18.3229 22.5105C18.4572 22.87 18.3782 23.0162 18.5244 23.3007C18.6311 23.4705 18.7654 23.6246 18.9195 23.755C18.9195 23.755 18.8997 23.913 18.876 24.0276ZM13.12 22.9925H13.112L13.1595 23.115C13.1279 23.2216 12.7644 23.3757 12.7644 23.3757L12.6854 23.2019C12.5827 22.953 12.6577 22.6686 12.875 22.5066L13.4716 22.1432L14.1076 22.2775C14.1036 22.4039 14.1432 22.5264 14.2182 22.6291L13.5505 22.5027L13.1555 22.7792C13.0923 22.8345 13.0804 22.9214 13.12 22.9925ZM20.7604 22.7357C20.8039 23.834 20.0414 24.798 18.9629 25.0113L19.1446 24.0552C19.1446 24 19.1644 23.9328 19.1723 23.8775C19.2276 23.9012 19.2829 23.917 19.3382 23.9288C19.4014 23.9328 19.4646 23.9328 19.5279 23.9288C19.7452 23.9288 19.9506 23.83 20.0809 23.6562L20.2232 23.4903L20.1046 23.3284C20.1046 23.3284 19.84 22.9096 19.6424 22.633L19.5318 22.4671C19.3105 22.1352 19.03 21.7164 18.473 21.7164H18.4216C18.3427 21.7204 18.2597 21.7362 18.1846 21.7639C18.0148 21.6809 17.8291 21.6375 17.6395 21.6375C17.4498 21.6414 17.2602 21.677 17.0824 21.7441L16.9876 21.7718L15.9446 21.6691C15.9012 21.6493 15.8656 21.6177 15.838 21.5782L16.0632 21.4873C16 20.7328 15.273 20.2705 14.878 20.1164C14.8582 20.0335 14.8187 19.9624 14.7595 19.9032L14.5343 19.6898L14.3368 19.9268L14.238 20.0453L12.7762 19.4448L13.7284 20.63L13.353 21.1989C13.274 21.278 13.27 21.4084 13.353 21.4913L13.7481 21.76L14.1432 21.6098H14.1827C14.1827 21.6691 14.1392 21.91 14.1195 21.9772L13.432 21.8587L12.6972 22.2537C12.3575 22.4987 12.2389 22.9491 12.4168 23.3284L12.4997 23.5061L12.6143 23.7589L12.8711 23.6523C12.7762 23.9091 12.8157 24.1935 12.9816 24.4108L13.1357 24.6084L13.3412 24.8691L13.5703 24.6241C13.7204 24.474 13.8389 24.3002 13.9219 24.1066L13.9693 23.9486L13.8587 23.8261V23.8024L13.9852 23.597L14.8977 23.8103L15.1032 23.8577L15.2138 23.676L15.273 23.5772C15.273 23.5575 15.273 23.5535 15.3284 23.5535H15.4271C15.7392 23.6167 16.0552 23.6484 16.3713 23.6523C16.5846 23.6641 16.798 23.6404 17.0034 23.5772L17.5091 24.154L17.2088 25.0784V25.1337C16.7584 25.1259 16.3279 25.3116 16.0236 25.6394C15.5377 25.1575 15.194 25.1061 13.8943 25.1061C12.3338 25.1061 11.2789 24.1935 11.2789 22.7357V19.1802H20.7604V22.7357ZM21.0172 13.4004C20.8552 13.7836 20.7684 14.1945 20.7525 14.6132V17.276C20.4088 17.2009 20.152 16.9086 20.1284 16.557V16.4345H20.0098C19.8044 16.4187 19.6148 16.3239 19.4725 16.1777C19.2987 15.9762 19.2039 15.7234 19.2 15.4587C19.03 15.7352 19.0459 16.0908 19.2434 16.3516C19.3975 16.5451 19.6227 16.6755 19.8676 16.7071C19.9387 17.1653 20.3061 17.5209 20.7644 17.5802V18.8839H19.1052C18.6706 18.6627 18.4888 18.1451 18.6824 17.6987L18.7456 17.5564L18.5995 17.5012C18.1254 17.3352 17.8646 16.8256 18.0148 16.3436L18.0464 16.2251L17.9357 16.1737C17.5209 15.9328 17.2918 15.4627 17.3589 14.9886C17.1416 15.2098 17.0864 15.5456 17.2246 15.8221C17.1456 15.913 17.0429 16.0196 16.9284 16.1382C16.5136 16.0513 16.2132 15.6918 16.1975 15.2691V15.1703L16.1066 15.1348C15.8656 15.0636 15.6681 14.8977 15.5536 14.6764C15.4784 14.4948 15.4627 14.2893 15.514 14.0996C15.593 14.1155 15.672 14.1273 15.7511 14.1352C15.83 14.1392 15.913 14.1392 15.992 14.1352C16.632 14.1352 17.2404 13.8587 17.6671 13.3846L21.0172 13.4004ZM18.4572 10.7061L19.1052 11.1012L19.2671 11.196C18.9313 11.2868 18.6271 11.4686 18.3861 11.7214L18.3584 11.7451C18.3032 11.8044 18.2518 11.8636 18.2004 11.9268L18.1688 11.9664C18.1175 12.0296 18.07 12.0967 18.0266 12.1678L18.0029 12.2034C17.9476 12.2824 17.8962 12.3693 17.8449 12.4562C17.4854 13.1713 16.7861 13.6493 15.992 13.7284C15.198 13.6493 14.4987 13.1713 14.1392 12.4562C14.0879 12.3693 14.0365 12.2864 13.9852 12.2034L13.9536 12.16L13.8271 11.9545L13.7916 11.911C13.7402 11.8478 13.6888 11.7886 13.6375 11.7332L13.6098 11.7056C13.3688 11.4528 13.0646 11.271 12.7288 11.1802L12.8948 11.0853L13.5466 10.6903L14.2143 10.2952L15.996 11.2632L17.7777 10.3268L18.4572 10.7061ZM17.5802 9.91595L16.1619 10.6627V7.62461L18.0859 6.97276L17.5802 9.91595ZM16 7.30461L13.8903 6.45918C14.0681 6.03251 14.8977 5.66906 16 5.66906C17.1022 5.66906 17.9318 6.03251 18.1096 6.45918L16 7.30461Z" fill="#222220"/>
</svg>
