<svg width="428" height="708" viewBox="0 0 428 708" fill="none" xmlns="http://www.w3.org/2000/svg">
<path d="M55.4457 247.379L116.933 212.528L178.421 247.379L178.427 247.383L239.353 283.208L239.915 353.883V353.891L239.353 424.566L178.427 460.39L178.421 460.394L116.933 495.245L55.4457 460.394L55.4388 460.39L-5.48683 424.566L-6.04871 353.891V353.883L-5.48683 283.208L55.4388 247.383L55.4457 247.379Z" stroke="#232530"/>
<path d="M176.562 35.4257L238.049 0.574732L299.537 35.4257L299.544 35.4297L360.469 71.254L361.031 141.929V141.937L360.469 212.612L299.544 248.437L299.537 248.441L238.049 283.292L176.562 248.441L176.555 248.437L115.629 212.612L115.068 141.937V141.929L115.629 71.2539L176.555 35.4297L176.562 35.4257Z" stroke="#232530"/>
<path d="M299.571 245.487L361.058 210.636L422.546 245.487L422.552 245.491L483.478 281.315L484.04 351.99V351.998L483.478 422.673L422.552 458.498L422.546 458.502L361.058 493.353L299.571 458.502L299.564 458.498L238.638 422.673L238.076 351.998V351.99L238.638 281.315L299.564 245.491L299.571 245.487Z" stroke="#232530"/>
<path d="M178.454 459.333L239.942 424.482L301.429 459.333L301.436 459.337L362.362 495.161L362.924 565.836V565.844L362.362 636.519L301.436 672.344L301.429 672.348L239.942 707.199L178.454 672.348L178.447 672.344L117.522 636.519L116.96 565.844V565.836L117.522 495.161L178.447 459.337L178.454 459.333Z" stroke="#232530"/>
<path d="M422.579 457.44L484.067 422.589L545.554 457.44L545.561 457.444L606.487 493.269L607.049 563.944V563.952L606.487 634.627L545.561 670.451L545.554 670.455L484.067 705.306L422.579 670.455L422.573 670.451L361.647 634.627L361.085 563.952V563.944L361.647 493.269L422.573 457.444L422.579 457.44Z" stroke="#232530"/>
</svg>
